<svg width="147" height="32" viewBox="0 0 147 32" fill="none" xmlns="http://www.w3.org/2000/svg">
<path d="M0 28.475C5.24211 28.475 9.49164 24.2254 9.49164 18.9834C9.49164 13.7413 5.24211 9.4917 0 9.4917V16.1358C1.57262 16.1358 2.84748 17.4107 2.84748 18.9834C2.84748 20.556 1.57262 21.8309 0 21.8309V28.475Z" fill="#0056D8"/>
<path d="M31.6389 12.6555C30.0169 12.1417 28.2896 11.8645 26.4975 11.8645C17.1054 11.8645 9.4917 19.4784 9.4917 28.8704C9.4917 29.8131 9.56841 30.7379 9.71589 31.6388H20.2822C19.905 30.7931 19.6953 29.8563 19.6953 28.8704C19.6953 25.1136 22.7407 22.068 26.4975 22.068C28.5509 22.068 30.3916 22.9778 31.6389 24.4162V12.6555Z" fill="#7AAFFF"/>
<path d="M1.66882 0C2.45575 7.11866 8.491 12.6556 15.8194 12.6556C23.1477 12.6556 29.183 7.11866 29.9699 0H19.7881C19.1595 1.57579 17.6194 2.68929 15.8194 2.68929C14.0193 2.68929 12.4794 1.57579 11.8507 0H1.66882Z" fill="#3083FF"/>
<path d="M50.27 24.338C47.462 24.338 45.174 23.4453 43.406 21.66C41.6553 19.8747 40.78 17.6213 40.78 14.9C40.78 12.2133 41.6727 9.96867 43.458 8.166C45.2607 6.36333 47.5313 5.462 50.27 5.462C52.3673 5.462 54.17 6.01667 55.678 7.126L54.638 10.35C53.2687 9.37933 51.8127 8.894 50.27 8.894C48.6233 8.894 47.2627 9.466 46.188 10.61C45.1307 11.754 44.602 13.184 44.602 14.9C44.602 16.6507 45.1307 18.0893 46.188 19.216C47.2627 20.3427 48.6233 20.906 50.27 20.906C51.8647 20.906 53.3727 20.412 54.794 19.424L55.834 22.622C54.2913 23.766 52.4367 24.338 50.27 24.338ZM57.2041 19.788C57.2041 18.4533 57.6894 17.37 58.6601 16.538C59.6307 15.706 60.9047 15.29 62.4821 15.29C63.7127 15.29 64.6921 15.5413 65.4201 16.044V15.16C65.4201 14.5533 65.2034 14.068 64.7701 13.704C64.3367 13.34 63.7301 13.158 62.9501 13.158C61.7887 13.158 60.5841 13.4787 59.3361 14.12L57.9841 11.676C58.6427 11.2253 59.4487 10.844 60.4021 10.532C61.3727 10.22 62.3521 10.064 63.3401 10.064C65.3854 10.064 66.8414 10.5407 67.7081 11.494C68.5747 12.43 69.0081 13.73 69.0081 15.394V24H65.8361L65.6021 23.116C64.8394 23.9307 63.7387 24.338 62.3001 24.338C60.8614 24.338 59.6481 23.9307 58.6601 23.116C57.6894 22.284 57.2041 21.1747 57.2041 19.788ZM61.4421 18.332C61.0087 18.6787 60.7921 19.1293 60.7921 19.684C60.7921 20.2387 61.0174 20.6893 61.4681 21.036C61.9187 21.3827 62.4821 21.556 63.1581 21.556C63.8514 21.556 64.4147 21.3913 64.8481 21.062C65.2814 20.7153 65.4981 20.256 65.4981 19.684C65.4981 19.0947 65.2814 18.6353 64.8481 18.306C64.4147 17.9593 63.8427 17.786 63.1321 17.786C62.4387 17.786 61.8754 17.968 61.4421 18.332ZM78.9236 10.064V13.704C76.4796 13.704 75.2576 15.16 75.2576 18.072V24H71.6696V10.402H75.1796V12.378C75.4916 11.6847 75.977 11.13 76.6356 10.714C77.2943 10.2807 78.057 10.064 78.9236 10.064ZM79.803 17.24C79.803 15.1773 80.427 13.47 81.675 12.118C82.9403 10.7487 84.535 10.064 86.459 10.064C88.539 10.064 90.1596 10.714 91.321 12.014C92.4823 13.2967 93.063 15.0647 93.063 17.318C93.063 17.6647 93.0543 17.9247 93.037 18.098H83.469C83.5036 19.0167 83.8503 19.7707 84.509 20.36C85.1676 20.932 85.9996 21.218 87.005 21.218C88.4436 21.218 89.5443 20.6633 90.307 19.554L92.673 21.348C92.2916 22.0413 91.6156 22.7173 90.645 23.376C89.6743 24.0173 88.4436 24.338 86.953 24.338C84.8036 24.338 83.0703 23.6793 81.753 22.362C80.453 21.0273 79.803 19.32 79.803 17.24ZM83.573 15.758H89.423C89.3883 14.926 89.1023 14.2587 88.565 13.756C88.0276 13.2533 87.343 13.002 86.511 13.002C85.679 13.002 85.003 13.262 84.483 13.782C83.963 14.302 83.6596 14.9607 83.573 15.758ZM102.204 10.064C105.342 10.064 106.91 12.092 106.91 16.148V24H103.322V15.732C103.322 15.004 103.097 14.4147 102.646 13.964C102.213 13.5133 101.684 13.288 101.06 13.288C100.332 13.288 99.7431 13.5307 99.2924 14.016C98.8591 14.484 98.6424 15.0907 98.6424 15.836V24H95.0544V10.402H98.5644V11.988C98.8937 11.468 99.3791 11.0173 100.02 10.636C100.662 10.2547 101.39 10.064 102.204 10.064ZM109.941 10.402V7.542H113.477V10.402H116.025V13.314H113.477V18.566C113.477 19.5367 113.625 20.1867 113.919 20.516C114.231 20.8453 114.751 21.01 115.479 21.01C115.722 21.01 115.939 21.0013 116.129 20.984V24.052C115.765 24.1387 115.254 24.182 114.595 24.182C112.983 24.182 111.796 23.7313 111.033 22.83C110.288 21.9113 109.915 20.5247 109.915 18.67V13.314H108.485V10.402H109.941ZM117.481 19.788C117.481 18.4533 117.967 17.37 118.937 16.538C119.908 15.706 121.182 15.29 122.759 15.29C123.99 15.29 124.969 15.5413 125.697 16.044V15.16C125.697 14.5533 125.481 14.068 125.047 13.704C124.614 13.34 124.007 13.158 123.227 13.158C122.066 13.158 120.861 13.4787 119.613 14.12L118.261 11.676C118.92 11.2253 119.726 10.844 120.679 10.532C121.65 10.22 122.629 10.064 123.617 10.064C125.663 10.064 127.119 10.5407 127.985 11.494C128.852 12.43 129.285 13.73 129.285 15.394V24H126.113L125.879 23.116C125.117 23.9307 124.016 24.338 122.577 24.338C121.139 24.338 119.925 23.9307 118.937 23.116C117.967 22.284 117.481 21.1747 117.481 19.788ZM121.719 18.332C121.286 18.6787 121.069 19.1293 121.069 19.684C121.069 20.2387 121.295 20.6893 121.745 21.036C122.196 21.3827 122.759 21.556 123.435 21.556C124.129 21.556 124.692 21.3913 125.125 21.062C125.559 20.7153 125.775 20.256 125.775 19.684C125.775 19.0947 125.559 18.6353 125.125 18.306C124.692 17.9593 124.12 17.786 123.409 17.786C122.716 17.786 122.153 17.968 121.719 18.332ZM131.947 24V5.202H135.535V24H131.947ZM138.371 24V5.202H141.959V24H138.371Z" fill="#1D1E21"/>
</svg>
